<svg id="svg" version="1.1" xmlns="http://www.w3.org/2000/svg" xmlns:xlink="http://www.w3.org/1999/xlink" width="400" height="400" viewBox="0, 0, 400,400"><g id="svgg"><path id="path0" d="M383.200 13.475 C 379.790 15.574,376.190 17.788,375.200 18.393 C 374.210 18.999,372.230 20.217,370.800 21.100 C 369.370 21.983,363.610 25.539,358.000 29.004 C 352.390 32.468,347.171 35.661,346.402 36.099 C 345.633 36.538,344.251 37.415,343.330 38.048 C 342.409 38.682,341.551 39.200,341.423 39.200 C 341.295 39.200,339.978 39.989,338.495 40.953 C 337.013 41.916,332.920 44.460,329.400 46.604 C 325.880 48.749,322.043 51.120,320.873 51.874 C 319.703 52.627,318.173 53.570,317.473 53.969 C 316.773 54.367,314.670 55.640,312.800 56.797 C 310.930 57.953,308.050 59.721,306.400 60.724 C 304.750 61.727,301.447 63.775,299.060 65.274 C 296.673 66.773,294.663 68.000,294.592 68.000 C 294.521 68.000,292.185 69.440,289.400 71.200 C 286.615 72.960,284.266 74.400,284.181 74.400 C 284.095 74.400,282.804 75.177,281.312 76.126 C 279.821 77.076,275.720 79.621,272.200 81.783 C 262.863 87.518,261.160 88.571,249.274 95.949 C 245.685 98.177,242.660 100.000,242.552 100.000 C 242.444 100.000,241.296 100.720,240.000 101.600 C 238.704 102.480,237.534 103.200,237.400 103.200 C 237.266 103.200,236.096 103.920,234.800 104.800 C 233.504 105.680,232.342 106.400,232.217 106.400 C 232.092 106.400,230.778 107.186,229.295 108.146 C 227.813 109.106,224.890 110.933,222.800 112.205 C 217.348 115.523,214.100 117.531,211.706 119.061 C 210.555 119.798,209.511 120.400,209.388 120.400 C 209.265 120.400,207.830 121.300,206.200 122.400 C 204.570 123.500,203.121 124.400,202.980 124.400 C 202.839 124.400,202.246 124.738,201.662 125.151 C 201.078 125.563,197.810 127.604,194.400 129.686 C 190.990 131.767,186.670 134.424,184.800 135.589 C 182.930 136.754,180.771 138.064,180.002 138.502 C 179.233 138.939,177.883 139.788,177.002 140.389 C 176.121 140.990,175.212 141.553,174.983 141.641 C 174.754 141.728,171.694 143.579,168.183 145.752 C 164.672 147.926,160.630 150.429,159.200 151.314 C 157.770 152.198,155.643 153.535,154.473 154.283 C 153.303 155.032,151.773 155.972,151.073 156.374 C 150.373 156.775,145.210 159.937,139.600 163.400 C 133.990 166.863,128.770 170.056,128.000 170.495 C 127.230 170.934,126.122 171.633,125.538 172.047 C 124.954 172.461,124.383 172.800,124.268 172.800 C 124.153 172.800,122.734 173.655,121.114 174.700 C 117.659 176.929,117.526 177.011,113.534 179.401 C 111.848 180.410,110.244 181.507,109.969 181.837 C 109.634 182.240,109.383 182.296,109.203 182.005 C 109.056 181.767,108.908 185.658,108.874 190.651 C 108.840 195.644,108.706 200.375,108.576 201.165 C 108.399 202.239,108.447 202.449,108.764 202.000 C 109.069 201.568,109.189 203.277,109.194 208.124 C 109.198 212.241,109.054 214.757,108.822 214.614 C 108.589 214.470,108.432 218.677,108.413 225.611 C 108.389 233.707,108.244 237.074,107.890 237.673 C 107.501 238.332,107.504 238.542,107.900 238.686 C 108.272 238.820,108.400 240.508,108.400 245.257 C 108.400 249.415,108.260 251.561,108.000 251.400 C 107.737 251.237,107.600 254.921,107.600 262.153 C 107.600 269.055,107.451 273.245,107.200 273.400 C 106.980 273.536,106.800 273.917,106.800 274.247 C 106.800 274.577,106.980 274.736,107.200 274.600 C 107.420 274.464,107.600 274.708,107.600 275.143 C 107.600 275.578,107.375 276.024,107.100 276.135 C 106.700 276.296,106.700 276.343,107.100 276.368 C 107.472 276.392,107.600 277.688,107.600 281.424 C 107.600 284.671,107.459 286.360,107.200 286.200 C 106.980 286.064,106.800 286.233,106.800 286.576 C 106.800 286.919,106.980 287.200,107.200 287.200 C 107.420 287.200,107.600 287.639,107.600 288.175 C 107.600 288.727,108.153 289.725,108.873 290.475 C 109.574 291.204,109.942 291.521,109.692 291.181 C 109.310 290.663,132.167 267.631,249.718 150.081 C 326.983 72.817,390.020 9.613,389.800 9.629 C 389.580 9.644,386.610 11.375,383.200 13.475 " stroke="none" fill="#2c5484" fill-rule="evenodd"></path><path id="path1" d="M390.800 8.291 C 390.470 8.416,389.448 9.032,388.528 9.659 C 387.608 10.287,386.741 10.800,386.600 10.800 C 386.459 10.800,385.589 11.295,384.665 11.900 C 383.742 12.505,382.630 13.214,382.193 13.476 C 381.757 13.738,379.150 15.337,376.400 17.029 C 373.650 18.722,370.771 20.464,370.002 20.902 C 369.233 21.339,367.851 22.215,366.930 22.848 C 366.009 23.482,365.063 24.000,364.828 24.000 C 364.593 24.000,364.400 24.180,364.400 24.400 C 364.400 24.620,364.145 24.800,363.833 24.800 C 363.522 24.800,363.207 24.935,363.133 25.100 C 362.966 25.476,360.836 26.775,359.900 27.071 C 359.515 27.193,359.200 27.452,359.200 27.647 C 359.200 27.841,359.017 28.000,358.794 28.000 C 358.570 28.000,357.445 28.605,356.294 29.345 C 353.733 30.990,346.985 35.179,345.573 36.000 C 342.305 37.900,340.584 39.007,340.467 39.285 C 340.393 39.458,340.156 39.600,339.939 39.600 C 339.722 39.600,338.759 40.140,337.800 40.800 C 336.841 41.460,335.863 42.000,335.628 42.000 C 335.393 42.000,335.200 42.159,335.200 42.353 C 335.200 42.548,334.885 42.807,334.500 42.929 C 333.790 43.154,331.567 44.423,331.200 44.812 C 331.090 44.929,329.650 45.822,328.000 46.797 C 326.350 47.772,323.509 49.521,321.686 50.685 C 319.863 51.848,318.280 52.800,318.168 52.800 C 318.056 52.800,316.630 53.700,315.000 54.800 C 313.370 55.900,311.928 56.800,311.796 56.800 C 311.664 56.800,310.496 57.520,309.200 58.400 C 307.904 59.280,306.654 60.000,306.422 60.000 C 306.190 60.000,306.000 60.180,306.000 60.400 C 306.000 60.620,305.833 60.800,305.629 60.800 C 305.426 60.800,303.851 61.669,302.129 62.731 C 300.408 63.794,298.010 65.262,296.800 65.995 C 295.590 66.727,293.391 68.108,291.913 69.063 C 290.435 70.019,289.120 70.800,288.991 70.800 C 288.862 70.800,287.696 71.520,286.400 72.400 C 285.104 73.280,283.934 74.000,283.800 74.000 C 283.666 74.000,282.496 74.720,281.200 75.600 C 279.904 76.480,278.654 77.200,278.422 77.200 C 278.190 77.200,278.000 77.380,278.000 77.600 C 278.000 77.820,277.817 78.000,277.594 78.000 C 277.370 78.000,276.245 78.609,275.094 79.353 C 272.661 80.925,262.837 86.938,260.831 88.082 C 260.078 88.512,258.423 89.569,257.153 90.432 C 255.883 91.294,254.669 92.000,254.455 92.000 C 254.242 92.000,254.007 92.135,253.933 92.300 C 253.766 92.676,251.636 93.975,250.700 94.271 C 250.315 94.393,250.000 94.652,250.000 94.847 C 250.000 95.041,249.817 95.200,249.594 95.200 C 249.370 95.200,248.245 95.805,247.094 96.545 C 245.942 97.285,243.290 98.929,241.200 100.199 C 239.110 101.469,236.187 103.294,234.705 104.254 C 233.222 105.214,231.842 106.000,231.638 106.000 C 231.434 106.000,231.207 106.135,231.133 106.300 C 230.966 106.676,228.836 107.975,227.900 108.271 C 227.515 108.393,227.200 108.652,227.200 108.847 C 227.200 109.041,227.010 109.200,226.778 109.200 C 226.546 109.200,225.296 109.920,224.000 110.800 C 222.704 111.680,221.564 112.400,221.466 112.400 C 221.224 112.400,209.123 119.860,208.517 120.383 C 208.251 120.612,207.924 120.800,207.789 120.800 C 207.654 120.800,206.759 121.340,205.800 122.000 C 204.841 122.660,203.863 123.200,203.628 123.200 C 203.393 123.200,203.200 123.380,203.200 123.600 C 203.200 123.820,203.007 124.000,202.772 124.000 C 202.537 124.000,201.559 124.540,200.600 125.200 C 199.641 125.860,198.663 126.400,198.428 126.400 C 198.193 126.400,198.000 126.580,198.000 126.800 C 198.000 127.020,197.818 127.200,197.595 127.200 C 197.373 127.200,195.978 127.989,194.495 128.954 C 191.663 130.797,181.990 136.736,179.602 138.099 C 178.833 138.538,177.451 139.415,176.530 140.048 C 175.609 140.682,174.663 141.200,174.428 141.200 C 174.193 141.200,174.000 141.380,174.000 141.600 C 174.000 141.820,173.807 142.000,173.572 142.000 C 173.337 142.000,172.359 142.540,171.400 143.200 C 170.441 143.860,169.574 144.400,169.474 144.400 C 169.374 144.400,166.560 146.110,163.221 148.200 C 159.881 150.290,157.061 152.000,156.953 152.000 C 156.845 152.000,155.696 152.720,154.400 153.600 C 153.104 154.480,151.934 155.200,151.800 155.200 C 151.666 155.200,150.496 155.920,149.200 156.800 C 147.904 157.680,146.654 158.400,146.422 158.400 C 146.190 158.400,145.999 158.535,145.997 158.700 C 145.995 158.865,145.590 159.197,145.097 159.439 C 144.604 159.680,141.320 161.646,137.800 163.808 C 134.280 165.971,130.230 168.454,128.800 169.328 C 127.370 170.201,125.448 171.429,124.528 172.058 C 123.608 172.686,122.743 173.200,122.606 173.200 C 122.469 173.200,121.296 173.920,120.000 174.800 C 118.704 175.680,117.454 176.400,117.222 176.400 C 116.990 176.400,116.800 176.580,116.800 176.800 C 116.800 177.020,116.632 177.200,116.427 177.200 C 116.084 177.200,112.063 179.532,111.600 179.999 C 111.490 180.110,110.905 180.456,110.300 180.768 C 109.695 181.080,109.200 181.606,109.200 181.937 C 109.200 182.411,109.393 182.365,110.100 181.725 C 110.595 181.277,112.260 180.156,113.800 179.234 C 117.683 176.910,117.806 176.834,121.114 174.700 C 122.734 173.655,124.153 172.800,124.268 172.800 C 124.383 172.800,124.954 172.461,125.538 172.047 C 126.122 171.633,127.230 170.934,128.000 170.495 C 128.770 170.056,133.990 166.863,139.600 163.400 C 145.210 159.937,150.373 156.775,151.073 156.374 C 151.773 155.972,153.303 155.032,154.473 154.283 C 155.643 153.535,157.770 152.198,159.200 151.314 C 160.630 150.429,164.672 147.926,168.183 145.752 C 171.694 143.579,174.754 141.728,174.983 141.641 C 175.212 141.553,176.121 140.990,177.002 140.389 C 177.883 139.788,179.233 138.939,180.002 138.502 C 180.771 138.064,182.930 136.754,184.800 135.589 C 186.670 134.424,190.990 131.767,194.400 129.686 C 197.810 127.604,201.078 125.563,201.662 125.151 C 202.246 124.738,202.839 124.400,202.980 124.400 C 203.121 124.400,204.570 123.500,206.200 122.400 C 207.830 121.300,209.265 120.400,209.388 120.400 C 209.511 120.400,210.555 119.798,211.706 119.061 C 214.100 117.531,217.348 115.523,222.800 112.205 C 224.890 110.933,227.813 109.106,229.295 108.146 C 230.778 107.186,232.092 106.400,232.217 106.400 C 232.342 106.400,233.504 105.680,234.800 104.800 C 236.096 103.920,237.266 103.200,237.400 103.200 C 237.534 103.200,238.704 102.480,240.000 101.600 C 241.296 100.720,242.444 100.000,242.552 100.000 C 242.660 100.000,245.685 98.177,249.274 95.949 C 252.863 93.721,256.880 91.230,258.200 90.414 C 259.520 89.598,261.770 88.207,263.200 87.322 C 264.630 86.438,268.680 83.946,272.200 81.783 C 275.720 79.621,279.821 77.076,281.312 76.126 C 282.804 75.177,284.095 74.400,284.181 74.400 C 284.266 74.400,286.615 72.960,289.400 71.200 C 292.185 69.440,294.521 68.000,294.592 68.000 C 294.663 68.000,296.673 66.773,299.060 65.274 C 301.447 63.775,304.750 61.727,306.400 60.724 C 308.050 59.721,310.930 57.953,312.800 56.797 C 314.670 55.640,316.773 54.367,317.473 53.969 C 318.173 53.570,319.703 52.627,320.873 51.874 C 322.043 51.120,325.880 48.749,329.400 46.604 C 332.920 44.460,337.013 41.916,338.495 40.953 C 339.978 39.989,341.295 39.200,341.423 39.200 C 341.551 39.200,342.409 38.682,343.330 38.048 C 344.251 37.415,345.633 36.538,346.402 36.099 C 347.171 35.661,352.390 32.465,358.000 28.997 C 363.610 25.529,369.010 22.202,370.000 21.602 C 370.990 21.003,373.330 19.561,375.200 18.398 C 382.590 13.802,389.706 9.572,389.833 9.700 C 389.907 9.774,326.809 72.992,249.615 150.184 C 109.636 290.161,109.265 290.536,109.932 291.454 C 110.392 292.088,111.012 292.379,111.924 292.387 C 112.696 292.395,113.145 292.566,113.001 292.798 C 112.843 293.055,114.743 293.179,118.378 293.150 C 121.470 293.124,124.000 292.945,124.000 292.752 C 124.000 292.554,132.148 292.400,142.567 292.400 C 154.257 292.400,161.183 292.256,161.267 292.010 C 161.350 291.767,168.026 291.585,179.000 291.525 C 214.574 291.330,218.290 291.232,218.566 290.476 C 218.832 289.748,219.127 289.238,221.048 286.184 C 223.752 281.888,232.951 266.921,233.700 265.600 C 234.136 264.830,234.808 263.750,235.192 263.200 C 235.880 262.214,238.639 257.736,239.997 255.400 C 241.305 253.151,251.292 237.009,253.049 234.305 C 254.012 232.822,254.800 231.515,254.800 231.400 C 254.800 231.285,255.589 229.978,256.554 228.495 C 258.318 225.784,267.466 210.899,268.826 208.527 C 269.228 207.827,270.174 206.297,270.929 205.127 C 271.683 203.957,274.782 198.950,277.815 194.000 C 280.848 189.050,284.716 182.750,286.411 180.000 C 288.105 177.250,291.432 171.850,293.802 168.000 C 300.451 157.201,301.225 155.952,302.661 153.706 C 303.398 152.555,304.000 151.517,304.000 151.401 C 304.000 151.285,304.783 149.978,305.740 148.495 C 307.552 145.687,309.102 143.191,313.000 136.800 C 316.474 131.105,318.375 128.030,319.861 125.706 C 320.598 124.555,321.200 123.507,321.200 123.378 C 321.200 123.249,321.715 122.392,322.345 121.472 C 322.975 120.552,325.200 117.010,327.289 113.600 C 329.378 110.190,332.039 105.870,333.200 104.000 C 334.362 102.130,335.802 99.790,336.400 98.800 C 336.998 97.810,338.438 95.470,339.601 93.600 C 340.764 91.730,342.921 88.220,344.396 85.800 C 345.871 83.380,348.300 79.420,349.794 77.000 C 351.289 74.580,353.001 71.790,353.599 70.800 C 354.198 69.810,355.637 67.470,356.799 65.600 C 357.960 63.730,360.567 59.500,362.591 56.200 C 364.614 52.900,367.224 48.670,368.389 46.800 C 369.554 44.930,370.833 42.827,371.231 42.127 C 371.630 41.427,372.574 39.897,373.330 38.727 C 374.085 37.557,376.458 33.720,378.602 30.200 C 380.747 26.680,383.289 22.587,384.251 21.105 C 385.213 19.622,386.000 18.315,386.000 18.199 C 386.000 18.083,386.602 17.045,387.339 15.894 C 392.725 7.469,392.675 7.579,390.800 8.291 M108.909 188.000 C 108.909 188.990,108.987 189.395,109.082 188.900 C 109.178 188.405,109.178 187.595,109.082 187.100 C 108.987 186.605,108.909 187.010,108.909 188.000 M108.673 202.153 C 108.269 203.208,108.376 214.338,108.794 214.596 C 109.063 214.762,109.200 212.606,109.200 208.224 C 109.200 201.821,109.126 200.972,108.673 202.153 M107.600 244.976 C 107.600 248.663,107.761 251.252,108.000 251.400 C 108.260 251.561,108.400 249.404,108.400 245.224 C 108.400 241.208,108.250 238.800,108.000 238.800 C 107.751 238.800,107.600 241.125,107.600 244.976 M107.012 274.917 C 106.841 275.312,106.813 275.747,106.951 275.884 C 107.357 276.290,107.684 275.720,107.497 274.931 C 107.332 274.233,107.310 274.232,107.012 274.917 M106.800 281.176 C 106.800 283.929,106.969 286.058,107.200 286.200 C 107.459 286.360,107.600 284.671,107.600 281.424 C 107.600 278.341,107.445 276.400,107.200 276.400 C 106.956 276.400,106.800 278.259,106.800 281.176 M244.400 326.338 C 244.400 326.524,244.760 327.002,245.200 327.400 C 245.640 327.798,246.000 328.006,246.000 327.862 C 246.000 327.718,245.640 327.240,245.200 326.800 C 244.760 326.360,244.400 326.152,244.400 326.338 M277.081 369.761 C 277.477 370.289,277.857 370.667,277.928 370.600 C 278.138 370.399,277.034 368.800,276.685 368.800 C 276.508 368.800,276.686 369.232,277.081 369.761 " stroke="none" fill="#2c84bc" fill-rule="evenodd"></path><path id="path2" d="M385.400 0.380 C 384.300 0.542,383.580 0.729,383.800 0.796 C 384.167 0.908,382.903 1.134,378.000 1.833 C 377.010 1.974,376.014 2.239,375.787 2.422 C 375.559 2.605,374.534 2.798,373.509 2.851 C 372.483 2.904,371.735 3.094,371.845 3.274 C 371.956 3.453,371.126 3.600,370.000 3.600 C 368.737 3.600,368.047 3.753,368.200 4.000 C 368.409 4.339,366.383 4.590,364.104 4.508 C 363.832 4.498,363.707 4.650,363.828 4.845 C 363.949 5.040,363.137 5.200,362.024 5.200 C 360.911 5.200,360.000 5.380,360.000 5.600 C 360.000 5.820,359.100 6.000,358.000 6.000 C 356.900 6.000,356.000 6.180,356.000 6.400 C 356.000 6.620,355.280 6.800,354.400 6.800 C 353.520 6.800,352.800 6.980,352.800 7.200 C 352.800 7.420,351.900 7.600,350.800 7.600 C 349.470 7.600,348.798 7.767,348.794 8.100 C 348.790 8.433,348.658 8.400,348.400 8.000 C 348.187 7.670,348.009 7.600,348.006 7.844 C 348.001 8.252,344.852 8.892,343.036 8.856 C 342.616 8.847,341.908 9.035,341.463 9.273 C 341.018 9.512,340.012 9.768,339.227 9.843 C 337.854 9.975,336.418 10.237,336.000 10.432 C 335.890 10.484,335.260 10.562,334.600 10.607 C 333.940 10.652,332.860 10.906,332.201 11.172 C 331.542 11.438,330.597 11.578,330.101 11.483 C 329.605 11.388,329.200 11.447,329.200 11.613 C 329.200 11.780,328.525 12.016,327.700 12.138 C 326.249 12.352,323.970 12.783,319.800 13.633 C 318.700 13.857,317.080 14.142,316.200 14.265 C 315.320 14.389,314.414 14.639,314.188 14.821 C 313.961 15.003,312.845 15.195,311.708 15.247 C 310.570 15.299,309.732 15.489,309.844 15.671 C 309.956 15.852,309.237 16.000,308.247 16.000 C 307.257 16.000,306.358 16.144,306.249 16.320 C 306.140 16.496,305.282 16.686,304.341 16.741 C 303.400 16.797,302.444 16.992,302.215 17.174 C 301.753 17.543,299.670 17.939,296.500 18.261 C 295.345 18.378,294.400 18.637,294.400 18.837 C 294.400 19.037,293.626 19.200,292.680 19.200 C 291.734 19.200,290.783 19.377,290.567 19.593 C 290.350 19.810,289.324 20.019,288.287 20.058 C 287.249 20.098,286.400 20.281,286.400 20.465 C 286.400 20.649,285.489 20.800,284.376 20.800 C 283.129 20.800,282.448 20.953,282.600 21.200 C 282.754 21.449,281.996 21.600,280.600 21.600 C 279.204 21.600,278.446 21.751,278.600 22.000 C 278.752 22.247,278.071 22.400,276.824 22.400 C 275.711 22.400,274.800 22.580,274.800 22.800 C 274.800 23.020,273.889 23.200,272.776 23.200 C 271.529 23.200,270.848 23.353,271.000 23.600 C 271.153 23.848,270.404 24.000,269.024 24.000 C 267.801 24.000,266.800 24.180,266.800 24.400 C 266.800 24.620,266.110 24.800,265.267 24.800 C 264.423 24.800,263.613 24.920,263.467 25.067 C 263.320 25.213,262.525 25.368,261.700 25.410 C 260.875 25.453,258.898 25.779,257.306 26.137 C 255.715 26.494,253.825 26.821,253.106 26.864 C 252.388 26.907,251.617 27.077,251.394 27.242 C 251.171 27.407,250.271 27.600,249.394 27.671 C 248.517 27.742,247.706 27.925,247.590 28.078 C 247.475 28.231,246.547 28.411,245.528 28.478 C 244.510 28.545,243.760 28.735,243.862 28.900 C 243.964 29.065,243.327 29.200,242.447 29.200 C 241.567 29.200,240.750 29.357,240.631 29.550 C 240.512 29.742,239.466 30.003,238.307 30.129 C 237.148 30.255,235.390 30.551,234.400 30.787 C 233.410 31.023,232.060 31.308,231.400 31.420 C 230.740 31.533,229.326 31.822,228.258 32.062 C 227.190 32.303,225.885 32.500,225.358 32.500 C 224.831 32.500,224.400 32.657,224.400 32.850 C 224.400 33.043,223.515 33.200,222.433 33.200 C 221.352 33.200,220.407 33.370,220.333 33.578 C 220.260 33.786,219.255 33.998,218.100 34.049 C 216.945 34.101,216.000 34.291,216.000 34.471 C 216.000 34.652,215.472 34.800,214.826 34.800 C 214.180 34.800,213.199 34.972,212.646 35.183 C 212.092 35.393,210.910 35.608,210.020 35.661 C 209.129 35.713,208.400 35.901,208.400 36.078 C 208.400 36.255,207.691 36.400,206.824 36.400 C 205.957 36.400,205.136 36.580,205.000 36.800 C 204.864 37.020,203.728 37.203,202.476 37.206 C 200.859 37.210,200.374 37.325,200.800 37.600 C 201.230 37.878,200.803 37.989,199.300 37.994 C 198.145 37.997,197.200 38.180,197.200 38.400 C 197.200 38.620,196.405 38.800,195.433 38.800 C 194.462 38.800,193.607 38.975,193.533 39.188 C 193.460 39.401,192.365 39.609,191.100 39.649 C 189.835 39.690,188.800 39.876,188.800 40.062 C 188.800 40.248,188.080 40.400,187.200 40.400 C 186.320 40.400,185.600 40.580,185.600 40.800 C 185.600 41.020,184.700 41.200,183.600 41.200 C 182.500 41.200,181.600 41.380,181.600 41.600 C 181.600 41.820,180.790 42.000,179.800 42.000 C 178.810 42.000,178.000 42.164,178.000 42.363 C 178.000 42.563,177.180 42.664,176.178 42.588 C 174.954 42.495,174.291 42.618,174.158 42.964 C 174.019 43.328,173.364 43.421,171.922 43.283 C 170.456 43.142,169.962 43.215,170.165 43.543 C 170.465 44.028,170.018 44.120,167.500 44.092 C 166.674 44.083,166.086 44.215,166.192 44.386 C 166.297 44.558,165.623 44.798,164.692 44.920 C 163.761 45.042,162.550 45.259,162.000 45.401 C 161.450 45.542,160.460 45.715,159.800 45.784 C 159.140 45.853,158.600 45.945,158.600 45.988 C 158.600 46.031,158.060 46.141,157.400 46.232 C 156.740 46.324,155.570 46.561,154.800 46.759 C 151.421 47.628,149.509 48.000,148.418 48.000 C 147.774 48.000,147.136 48.180,147.000 48.400 C 146.864 48.620,145.863 48.800,144.776 48.800 C 143.689 48.800,142.800 48.962,142.800 49.160 C 142.800 49.496,142.173 49.620,137.300 50.243 C 136.255 50.377,135.214 50.636,134.987 50.820 C 134.759 51.004,133.734 51.198,132.709 51.251 C 131.683 51.304,130.921 51.472,131.014 51.623 C 131.108 51.775,130.334 52.012,129.293 52.150 C 125.412 52.663,124.189 52.904,123.771 53.238 C 123.535 53.426,122.417 53.613,121.286 53.653 C 120.156 53.693,119.324 53.877,119.439 54.063 C 119.553 54.248,118.636 54.400,117.400 54.400 C 116.004 54.400,115.246 54.551,115.400 54.800 C 115.554 55.049,114.796 55.200,113.400 55.200 C 112.004 55.200,111.246 55.351,111.400 55.600 C 111.551 55.844,110.945 56.000,109.847 56.000 C 108.857 56.000,107.936 56.180,107.800 56.400 C 107.664 56.620,106.663 56.800,105.576 56.800 C 104.489 56.800,103.600 56.980,103.600 57.200 C 103.600 57.420,102.790 57.600,101.800 57.600 C 100.810 57.600,100.000 57.780,100.000 58.000 C 100.000 58.220,99.190 58.400,98.200 58.400 C 97.210 58.400,96.400 58.580,96.400 58.799 C 96.400 59.023,95.707 59.131,94.821 59.045 C 93.953 58.960,93.138 58.996,93.010 59.124 C 92.727 59.407,91.826 59.574,90.100 59.663 C 89.385 59.699,88.800 59.850,88.800 59.998 C 88.800 60.146,88.575 60.276,88.300 60.287 C 88.025 60.298,87.260 60.425,86.600 60.569 C 83.919 61.156,81.600 61.467,81.594 61.240 C 81.591 61.108,81.413 61.270,81.200 61.600 C 80.855 62.133,80.811 62.133,80.800 61.600 C 80.790 61.100,80.729 61.092,80.436 61.556 C 80.225 61.888,79.355 62.123,78.271 62.140 C 77.273 62.156,76.545 62.311,76.652 62.485 C 76.760 62.658,76.153 62.800,75.304 62.800 C 74.455 62.800,73.589 62.962,73.380 63.159 C 73.013 63.506,72.310 63.636,67.600 64.226 C 66.390 64.377,65.213 64.649,64.985 64.829 C 64.756 65.010,63.811 65.202,62.885 65.257 C 61.958 65.312,61.200 65.501,61.200 65.678 C 61.200 65.855,60.405 66.000,59.433 66.000 C 58.462 66.000,57.607 66.170,57.533 66.378 C 57.460 66.585,56.373 66.796,55.118 66.845 C 53.863 66.895,52.929 67.085,53.042 67.268 C 53.155 67.450,52.618 67.600,51.850 67.600 C 51.081 67.600,49.999 67.772,49.446 67.983 C 48.892 68.193,47.721 68.408,46.843 68.459 C 45.966 68.511,45.338 68.699,45.447 68.877 C 45.557 69.055,44.827 69.200,43.824 69.200 C 42.821 69.200,42.000 69.346,42.000 69.525 C 42.000 69.704,41.145 69.894,40.100 69.947 C 39.055 70.000,38.140 70.213,38.067 70.421 C 37.993 70.630,37.149 70.800,36.190 70.800 C 35.232 70.800,34.336 70.980,34.200 71.200 C 34.064 71.420,33.153 71.600,32.176 71.600 C 31.199 71.600,30.400 71.780,30.400 72.000 C 30.400 72.220,29.500 72.400,28.400 72.400 C 27.300 72.400,26.400 72.580,26.400 72.800 C 26.400 73.020,25.601 73.200,24.624 73.200 C 23.647 73.200,22.736 73.380,22.600 73.600 C 22.464 73.820,21.583 74.000,20.643 74.000 C 19.703 74.000,18.808 74.125,18.655 74.278 C 18.336 74.597,17.618 74.731,15.500 74.863 C 14.675 74.914,14.000 75.056,14.000 75.178 C 14.000 75.301,13.353 75.417,12.563 75.437 C 11.772 75.457,11.007 75.643,10.863 75.850 C 10.718 76.057,10.330 76.212,10.000 76.193 C 9.338 76.156,5.080 78.695,4.866 79.254 C 4.792 79.447,4.539 79.486,4.304 79.341 C 4.069 79.195,3.984 79.250,4.115 79.462 C 4.246 79.674,3.823 80.347,3.176 80.957 C 2.529 81.568,2.000 82.243,2.000 82.458 C 2.000 82.672,1.820 82.736,1.600 82.600 C 1.380 82.464,1.200 82.701,1.200 83.128 C 1.200 83.554,0.913 84.589,0.563 85.428 C -0.670 88.379,0.229 99.582,1.700 99.597 C 1.865 99.599,2.000 99.863,2.000 100.185 C 2.000 100.506,2.765 101.497,3.700 102.387 C 4.635 103.277,5.805 104.405,6.300 104.894 C 6.795 105.383,7.200 105.624,7.200 105.430 C 7.200 105.236,7.560 105.493,8.000 106.000 C 8.440 106.507,8.805 106.760,8.812 106.561 C 8.819 106.363,9.008 106.515,9.232 106.900 C 9.456 107.285,10.180 107.880,10.841 108.221 C 11.502 108.563,12.372 109.148,12.774 109.521 C 13.830 110.502,15.238 111.557,16.500 112.313 C 17.105 112.676,17.600 113.114,17.600 113.286 C 17.600 113.459,17.778 113.600,17.995 113.600 C 18.364 113.600,18.702 113.845,20.895 115.700 C 21.350 116.085,21.855 116.400,22.017 116.400 C 22.179 116.400,23.007 117.026,23.856 117.791 C 24.705 118.556,25.532 119.186,25.693 119.191 C 25.971 119.200,27.357 120.340,29.450 122.282 C 29.972 122.767,30.404 123.037,30.409 122.882 C 30.414 122.727,30.789 123.050,31.244 123.600 C 31.698 124.150,31.932 124.341,31.765 124.025 C 31.597 123.709,32.256 124.069,33.230 124.825 C 34.203 125.581,35.060 126.335,35.133 126.500 C 35.207 126.665,35.440 126.800,35.652 126.800 C 35.863 126.800,36.486 127.250,37.036 127.800 C 37.586 128.350,38.205 128.800,38.411 128.800 C 38.617 128.800,39.434 129.430,40.227 130.200 C 41.020 130.970,41.788 131.601,41.934 131.602 C 42.080 131.603,42.740 132.098,43.400 132.702 C 44.060 133.306,45.095 134.055,45.700 134.368 C 46.305 134.680,46.800 135.063,46.800 135.219 C 46.800 135.375,47.338 135.726,47.995 135.998 C 48.652 136.270,49.091 136.652,48.971 136.846 C 48.851 137.041,48.951 137.200,49.193 137.200 C 49.632 137.200,50.166 137.572,51.629 138.900 C 52.053 139.285,52.400 139.510,52.400 139.400 C 52.400 139.290,52.760 139.560,53.200 140.000 C 53.640 140.440,54.204 140.800,54.453 140.800 C 54.702 140.800,55.197 141.115,55.553 141.500 C 56.480 142.502,59.493 144.800,59.880 144.800 C 60.060 144.800,60.432 145.160,60.707 145.600 C 60.982 146.040,61.395 146.400,61.625 146.400 C 61.855 146.400,62.619 146.939,63.322 147.598 C 64.025 148.257,64.813 148.797,65.073 148.798 C 65.333 148.799,65.661 149.163,65.802 149.606 C 65.943 150.049,66.202 150.322,66.378 150.213 C 66.555 150.104,67.181 150.462,67.770 151.007 C 68.359 151.553,68.967 152.001,69.121 152.002 C 69.274 152.003,69.975 152.543,70.678 153.202 C 71.381 153.861,72.067 154.400,72.202 154.400 C 72.422 154.400,75.451 156.559,76.683 157.594 C 76.949 157.817,77.354 158.000,77.583 158.000 C 77.812 158.000,78.000 158.180,78.000 158.400 C 78.000 158.620,78.169 158.800,78.375 158.800 C 78.582 158.800,79.342 159.340,80.064 160.000 C 80.787 160.660,81.517 161.200,81.686 161.200 C 81.855 161.200,82.509 161.740,83.140 162.400 C 83.771 163.060,84.470 163.600,84.695 163.600 C 84.919 163.600,85.403 164.005,85.770 164.500 C 86.137 164.995,86.325 165.130,86.188 164.800 C 86.051 164.470,86.297 164.605,86.734 165.100 C 87.171 165.595,87.715 166.000,87.944 166.000 C 88.173 166.000,88.544 166.315,88.768 166.700 C 88.992 167.085,89.181 167.257,89.188 167.082 C 89.195 166.907,89.644 167.208,90.187 167.751 C 90.730 168.294,91.554 168.858,92.017 169.005 C 92.481 169.153,92.756 169.377,92.629 169.504 C 92.502 169.632,93.163 170.191,94.099 170.748 C 95.034 171.304,96.248 172.174,96.796 172.680 C 97.344 173.186,97.918 173.600,98.071 173.600 C 98.225 173.600,98.942 174.140,99.664 174.800 C 100.387 175.460,101.136 176.000,101.329 176.000 C 101.521 176.000,102.183 176.540,102.800 177.200 C 103.417 177.860,104.137 178.400,104.400 178.400 C 104.663 178.400,105.383 178.940,106.000 179.600 C 106.617 180.260,107.394 180.800,107.727 180.800 C 108.061 180.800,108.404 181.011,108.489 181.268 C 108.626 181.678,110.822 180.782,111.600 179.999 C 112.065 179.531,116.085 177.200,116.427 177.200 C 116.632 177.200,116.800 177.020,116.800 176.800 C 116.800 176.580,116.990 176.400,117.222 176.400 C 117.454 176.400,118.704 175.680,120.000 174.800 C 121.296 173.920,122.469 173.200,122.606 173.200 C 122.743 173.200,123.608 172.686,124.528 172.058 C 125.448 171.429,127.370 170.201,128.800 169.328 C 130.230 168.454,134.280 165.971,137.800 163.808 C 141.320 161.646,144.604 159.680,145.097 159.439 C 145.590 159.197,145.995 158.865,145.997 158.700 C 145.999 158.535,146.190 158.400,146.422 158.400 C 146.654 158.400,147.904 157.680,149.200 156.800 C 150.496 155.920,151.666 155.200,151.800 155.200 C 151.934 155.200,153.104 154.480,154.400 153.600 C 155.696 152.720,156.845 152.000,156.953 152.000 C 157.061 152.000,159.881 150.290,163.221 148.200 C 166.560 146.110,169.374 144.400,169.474 144.400 C 169.574 144.400,170.441 143.860,171.400 143.200 C 172.359 142.540,173.337 142.000,173.572 142.000 C 173.807 142.000,174.000 141.820,174.000 141.600 C 174.000 141.380,174.193 141.200,174.428 141.200 C 174.663 141.200,175.609 140.682,176.530 140.048 C 177.451 139.415,178.833 138.538,179.602 138.099 C 181.990 136.736,191.663 130.797,194.495 128.954 C 195.978 127.989,197.373 127.200,197.595 127.200 C 197.818 127.200,198.000 127.020,198.000 126.800 C 198.000 126.580,198.193 126.400,198.428 126.400 C 198.663 126.400,199.641 125.860,200.600 125.200 C 201.559 124.540,202.537 124.000,202.772 124.000 C 203.007 124.000,203.200 123.820,203.200 123.600 C 203.200 123.380,203.393 123.200,203.628 123.200 C 203.863 123.200,204.841 122.660,205.800 122.000 C 206.759 121.340,207.654 120.800,207.789 120.800 C 207.924 120.800,208.251 120.612,208.517 120.383 C 209.123 119.860,221.224 112.400,221.466 112.400 C 221.564 112.400,222.704 111.680,224.000 110.800 C 225.296 109.920,226.531 109.200,226.745 109.200 C 226.958 109.200,227.193 109.065,227.267 108.900 C 227.434 108.524,229.564 107.225,230.500 106.929 C 230.885 106.807,231.200 106.548,231.200 106.353 C 231.200 106.159,231.382 106.000,231.605 106.000 C 231.827 106.000,233.222 105.214,234.705 104.254 C 236.187 103.294,239.110 101.469,241.200 100.199 C 243.290 98.929,245.942 97.285,247.094 96.545 C 248.245 95.805,249.355 95.200,249.561 95.200 C 249.766 95.200,249.993 95.065,250.067 94.900 C 250.234 94.524,252.364 93.225,253.300 92.929 C 253.685 92.807,254.000 92.548,254.000 92.353 C 254.000 92.159,254.190 92.000,254.422 92.000 C 254.654 92.000,255.883 91.294,257.153 90.432 C 258.423 89.569,260.078 88.512,260.831 88.082 C 262.837 86.938,272.661 80.925,275.094 79.353 C 276.245 78.609,277.370 78.000,277.594 78.000 C 277.817 78.000,278.000 77.820,278.000 77.600 C 278.000 77.380,278.190 77.200,278.422 77.200 C 278.654 77.200,279.904 76.480,281.200 75.600 C 282.496 74.720,283.666 74.000,283.800 74.000 C 283.934 74.000,285.104 73.280,286.400 72.400 C 287.696 71.520,288.862 70.800,288.991 70.800 C 289.120 70.800,290.435 70.019,291.913 69.063 C 293.391 68.108,295.590 66.727,296.800 65.995 C 298.010 65.262,300.408 63.794,302.129 62.731 C 303.851 61.669,305.426 60.800,305.629 60.800 C 305.833 60.800,306.000 60.620,306.000 60.400 C 306.000 60.180,306.190 60.000,306.422 60.000 C 306.654 60.000,307.904 59.280,309.200 58.400 C 310.496 57.520,311.664 56.800,311.796 56.800 C 311.928 56.800,313.370 55.900,315.000 54.800 C 316.630 53.700,318.056 52.800,318.168 52.800 C 318.280 52.800,319.863 51.848,321.686 50.685 C 323.509 49.521,326.350 47.772,328.000 46.797 C 329.650 45.822,331.090 44.929,331.200 44.812 C 331.567 44.423,333.790 43.154,334.500 42.929 C 334.885 42.807,335.200 42.548,335.200 42.353 C 335.200 42.159,335.393 42.000,335.628 42.000 C 335.863 42.000,336.841 41.460,337.800 40.800 C 338.759 40.140,339.722 39.600,339.939 39.600 C 340.156 39.600,340.393 39.458,340.467 39.285 C 340.584 39.007,342.305 37.900,345.573 36.000 C 346.985 35.179,353.733 30.990,356.294 29.345 C 357.445 28.605,358.570 28.000,358.794 28.000 C 359.017 28.000,359.200 27.841,359.200 27.647 C 359.200 27.452,359.515 27.193,359.900 27.071 C 360.836 26.775,362.966 25.476,363.133 25.100 C 363.207 24.935,363.522 24.800,363.833 24.800 C 364.145 24.800,364.400 24.620,364.400 24.400 C 364.400 24.180,364.593 24.000,364.828 24.000 C 365.063 24.000,366.009 23.482,366.930 22.848 C 367.851 22.215,369.233 21.339,370.002 20.902 C 370.771 20.464,373.650 18.722,376.400 17.029 C 379.150 15.337,381.757 13.738,382.193 13.476 C 382.630 13.214,383.742 12.505,384.665 11.900 C 385.589 11.295,386.459 10.800,386.600 10.800 C 386.741 10.800,387.608 10.285,388.528 9.655 C 393.127 6.505,393.036 6.983,387.339 15.894 C 386.602 17.045,386.000 18.083,386.000 18.199 C 386.000 18.315,385.213 19.622,384.251 21.105 C 383.289 22.587,380.747 26.680,378.602 30.200 C 376.458 33.720,374.085 37.557,373.330 38.727 C 372.574 39.897,371.630 41.427,371.231 42.127 C 370.833 42.827,369.554 44.930,368.389 46.800 C 367.224 48.670,364.614 52.900,362.591 56.200 C 360.567 59.500,357.960 63.730,356.799 65.600 C 355.637 67.470,354.198 69.810,353.599 70.800 C 353.001 71.790,351.289 74.580,349.794 77.000 C 348.300 79.420,345.871 83.380,344.396 85.800 C 342.921 88.220,340.764 91.730,339.601 93.600 C 338.438 95.470,336.998 97.810,336.400 98.800 C 335.802 99.790,334.362 102.130,333.200 104.000 C 332.039 105.870,329.378 110.190,327.289 113.600 C 325.200 117.010,322.975 120.552,322.345 121.472 C 321.715 122.392,321.200 123.249,321.200 123.378 C 321.200 123.507,320.598 124.555,319.861 125.706 C 318.375 128.030,316.474 131.105,313.000 136.800 C 309.102 143.191,307.552 145.687,305.740 148.495 C 304.783 149.978,304.000 151.285,304.000 151.401 C 304.000 151.517,303.398 152.555,302.661 153.706 C 301.225 155.952,300.451 157.201,293.802 168.000 C 291.432 171.850,288.105 177.250,286.411 180.000 C 284.716 182.750,280.848 189.050,277.815 194.000 C 274.782 198.950,271.683 203.957,270.929 205.127 C 270.174 206.297,269.228 207.827,268.826 208.527 C 267.466 210.899,258.318 225.784,256.554 228.495 C 255.589 229.978,254.800 231.285,254.800 231.400 C 254.800 231.515,254.012 232.822,253.049 234.305 C 251.292 237.009,241.305 253.151,239.997 255.400 C 238.639 257.736,235.880 262.214,235.192 263.200 C 234.808 263.750,234.136 264.830,233.700 265.600 C 232.697 267.369,222.763 283.497,220.954 286.294 C 220.209 287.445,219.600 288.548,219.600 288.745 C 219.600 288.941,219.330 289.326,219.000 289.600 C 218.191 290.271,218.201 292.400,219.013 292.400 C 219.349 292.400,219.743 292.706,219.886 293.081 C 220.030 293.455,220.654 294.292,221.274 294.940 C 221.893 295.588,222.400 296.322,222.400 296.571 C 222.400 296.820,222.760 297.283,223.200 297.600 C 223.640 297.917,224.000 298.367,224.000 298.599 C 224.000 298.832,224.540 299.613,225.200 300.336 C 225.860 301.058,226.400 301.773,226.401 301.925 C 226.401 302.076,226.941 302.830,227.600 303.600 C 228.259 304.370,228.799 305.225,228.799 305.500 C 228.800 305.775,228.935 306.001,229.100 306.003 C 229.265 306.004,229.850 306.669,230.400 307.480 C 230.950 308.291,231.794 309.351,232.276 309.835 C 232.757 310.319,233.042 310.824,232.909 310.958 C 232.776 311.091,232.907 311.200,233.200 311.200 C 233.493 311.200,233.620 311.314,233.481 311.453 C 233.342 311.592,233.762 312.204,234.414 312.813 C 235.066 313.422,235.600 314.103,235.600 314.327 C 235.600 314.550,236.140 315.242,236.800 315.865 C 237.460 316.488,238.000 317.131,238.000 317.294 C 238.000 317.558,238.559 318.321,239.800 319.750 C 240.020 320.003,240.825 321.108,241.588 322.205 C 243.040 324.292,243.132 324.414,244.399 325.952 C 244.830 326.475,245.088 327.058,244.971 327.247 C 244.854 327.436,245.062 327.474,245.434 327.332 C 245.900 327.153,246.052 327.244,245.925 327.625 C 245.824 327.929,246.163 328.599,246.678 329.114 C 247.194 329.630,247.508 330.224,247.378 330.436 C 247.247 330.647,247.345 330.770,247.595 330.710 C 247.845 330.649,248.443 331.316,248.925 332.191 C 249.406 333.066,250.081 334.056,250.425 334.391 C 250.769 334.726,251.826 336.035,252.773 337.300 C 253.721 338.565,254.654 339.600,254.848 339.600 C 255.042 339.600,255.200 339.801,255.200 340.047 C 255.200 340.293,255.746 341.148,256.414 341.947 C 257.835 343.648,257.882 343.712,259.242 345.800 C 259.816 346.680,260.851 348.004,261.542 348.742 C 262.234 349.481,262.800 350.247,262.800 350.446 C 262.800 350.765,264.055 352.337,265.500 353.827 C 265.775 354.111,266.000 354.521,266.000 354.738 C 266.000 354.955,266.135 355.193,266.300 355.267 C 266.465 355.340,267.401 356.480,268.381 357.800 C 269.361 359.120,270.396 360.438,270.681 360.729 C 270.966 361.019,271.200 361.416,271.200 361.610 C 271.200 361.805,271.650 362.414,272.200 362.964 C 272.750 363.514,273.200 364.082,273.200 364.226 C 273.200 364.371,273.915 365.344,274.790 366.388 C 275.664 367.432,276.264 368.402,276.123 368.543 C 275.982 368.685,276.186 368.800,276.576 368.800 C 277.053 368.800,277.207 369.004,277.047 369.421 C 276.910 369.779,276.978 369.938,277.207 369.795 C 277.426 369.660,277.728 369.868,277.877 370.257 C 278.159 370.991,278.898 371.989,280.100 373.260 C 280.485 373.667,280.801 374.135,280.802 374.300 C 280.803 374.465,281.298 375.140,281.902 375.800 C 282.506 376.460,283.255 377.495,283.568 378.100 C 283.880 378.705,284.285 379.200,284.468 379.200 C 284.650 379.200,284.800 379.430,284.800 379.712 C 284.800 379.993,285.160 380.483,285.600 380.800 C 286.040 381.117,286.400 381.607,286.400 381.888 C 286.400 382.170,286.580 382.400,286.800 382.400 C 287.020 382.400,287.200 382.582,287.200 382.803 C 287.200 383.025,287.695 383.755,288.300 384.425 C 288.905 385.095,289.715 386.215,290.100 386.915 C 290.485 387.615,290.800 388.042,290.800 387.865 C 290.800 387.688,291.070 387.813,291.400 388.143 C 291.730 388.473,292.000 389.016,292.000 389.349 C 292.000 389.682,292.359 390.206,292.797 390.513 C 293.236 390.820,293.476 391.191,293.331 391.336 C 293.186 391.481,293.377 391.600,293.757 391.600 C 294.137 391.600,294.350 391.757,294.232 391.949 C 294.113 392.141,294.507 392.828,295.108 393.477 C 295.709 394.125,296.579 395.093,297.043 395.628 C 297.979 396.707,299.493 398.000,299.821 398.000 C 299.938 398.000,300.409 398.350,300.868 398.778 C 302.621 400.411,313.168 400.449,316.335 398.833 C 318.394 397.782,322.191 394.100,322.605 392.752 C 322.766 392.229,323.092 391.557,323.330 391.261 C 323.568 390.965,323.821 390.342,323.891 389.878 C 323.962 389.414,324.184 388.933,324.384 388.810 C 324.584 388.686,324.695 387.909,324.629 387.082 C 324.563 386.256,324.665 385.483,324.855 385.366 C 325.045 385.249,325.200 384.364,325.200 383.400 C 325.200 382.436,325.380 381.536,325.600 381.400 C 325.820 381.264,326.000 380.454,326.000 379.600 C 326.000 378.746,326.180 377.936,326.400 377.800 C 326.620 377.664,326.800 376.753,326.800 375.776 C 326.800 374.799,326.963 374.000,327.161 374.000 C 327.360 374.000,327.633 373.055,327.768 371.900 C 328.385 366.617,328.499 366.014,328.839 366.224 C 329.037 366.347,329.200 365.547,329.200 364.447 C 329.200 363.347,329.380 362.336,329.600 362.200 C 329.820 362.064,330.000 361.074,330.000 360.000 C 330.000 358.926,330.180 357.936,330.400 357.800 C 330.620 357.664,330.800 356.833,330.800 355.953 C 330.800 355.073,330.935 354.436,331.100 354.538 C 331.265 354.640,331.455 353.890,331.522 352.872 C 331.589 351.853,331.778 350.925,331.942 350.810 C 332.105 350.694,332.290 349.790,332.351 348.800 C 332.413 347.810,332.629 346.829,332.832 346.620 C 333.034 346.411,333.200 345.556,333.200 344.720 C 333.200 343.884,333.380 343.200,333.600 343.200 C 333.820 343.200,334.000 342.311,334.000 341.224 C 334.000 340.137,334.180 339.136,334.400 339.000 C 334.620 338.864,334.800 338.054,334.800 337.200 C 334.800 336.346,334.980 335.536,335.200 335.400 C 335.420 335.264,335.600 334.163,335.600 332.953 C 335.600 331.743,335.745 330.843,335.923 330.953 C 336.194 331.120,336.397 329.854,336.511 327.300 C 336.523 327.025,336.683 326.800,336.867 326.800 C 337.050 326.800,337.200 326.091,337.200 325.224 C 337.200 324.357,337.346 323.557,337.524 323.447 C 337.702 323.337,337.893 322.387,337.947 321.337 C 338.001 320.286,338.185 319.241,338.355 319.013 C 338.525 318.786,338.897 317.070,339.181 315.200 C 339.466 313.330,339.963 310.740,340.287 309.444 C 340.610 308.149,340.950 306.439,341.042 305.644 C 341.490 301.768,341.711 300.569,342.041 300.220 C 342.238 300.011,342.400 298.965,342.400 297.896 C 342.400 296.703,342.554 296.048,342.800 296.200 C 343.047 296.352,343.200 295.671,343.200 294.424 C 343.200 293.311,343.380 292.400,343.600 292.400 C 343.820 292.400,344.000 291.500,344.000 290.400 C 344.000 289.300,344.180 288.400,344.400 288.400 C 344.620 288.400,344.800 287.601,344.800 286.624 C 344.800 285.647,344.980 284.736,345.200 284.600 C 345.420 284.464,345.600 283.632,345.600 282.750 C 345.600 281.869,345.771 280.828,345.980 280.437 C 346.189 280.047,346.404 278.979,346.458 278.064 C 346.512 277.149,346.701 276.400,346.878 276.400 C 347.055 276.400,347.200 275.716,347.200 274.880 C 347.200 274.044,347.362 273.189,347.559 272.980 C 347.756 272.771,348.031 271.790,348.169 270.800 C 348.786 266.363,348.903 265.778,349.241 265.420 C 349.438 265.211,349.600 264.212,349.600 263.200 C 349.600 262.188,349.763 261.189,349.961 260.980 C 350.160 260.771,350.417 259.790,350.532 258.800 C 350.648 257.810,350.949 256.100,351.203 255.000 C 351.456 253.900,351.757 252.145,351.870 251.100 C 351.984 250.055,352.207 249.281,352.365 249.378 C 352.523 249.476,352.696 248.715,352.750 247.687 C 352.803 246.660,352.992 245.724,353.170 245.609 C 353.347 245.494,353.602 244.410,353.736 243.200 C 354.049 240.355,354.397 238.352,354.707 237.600 C 355.040 236.793,355.100 236.427,355.154 234.876 C 355.179 234.148,355.345 233.643,355.523 233.753 C 355.701 233.862,355.890 233.214,355.943 232.313 C 355.996 231.411,356.191 230.386,356.375 230.036 C 356.559 229.686,356.674 228.950,356.632 228.400 C 356.589 227.850,356.721 227.175,356.926 226.900 C 357.130 226.625,357.342 225.635,357.396 224.700 C 357.450 223.765,357.531 223.000,357.577 223.000 C 357.748 223.000,358.091 221.321,358.476 218.600 C 358.694 217.060,359.036 215.487,359.236 215.105 C 359.436 214.723,359.600 213.508,359.600 212.405 C 359.600 211.302,359.780 210.400,360.000 210.400 C 360.220 210.400,360.400 209.515,360.400 208.433 C 360.400 207.352,360.571 206.407,360.780 206.333 C 360.989 206.260,361.204 205.435,361.258 204.500 C 361.312 203.565,361.501 202.800,361.678 202.800 C 361.855 202.800,362.000 201.889,362.000 200.776 C 362.000 199.663,362.163 198.853,362.361 198.976 C 362.701 199.186,362.815 198.583,363.432 193.300 C 363.567 192.145,363.808 191.281,363.968 191.380 C 364.128 191.479,364.301 190.638,364.352 189.511 C 364.404 188.384,364.616 187.145,364.823 186.757 C 365.030 186.370,365.200 185.501,365.200 184.826 C 365.200 184.152,365.380 183.600,365.600 183.600 C 365.820 183.600,366.000 182.790,366.000 181.800 C 366.000 180.810,366.135 180.000,366.300 180.000 C 366.465 180.000,366.654 179.161,366.720 178.135 C 366.787 177.110,367.012 175.952,367.220 175.562 C 367.429 175.172,367.600 174.311,367.600 173.650 C 367.600 172.988,367.744 172.358,367.920 172.249 C 368.096 172.140,368.284 171.311,368.338 170.406 C 368.391 169.501,368.607 168.308,368.817 167.754 C 369.028 167.201,369.200 166.166,369.200 165.454 C 369.200 164.742,369.370 163.989,369.578 163.780 C 369.785 163.571,369.999 162.545,370.052 161.500 C 370.106 160.455,370.296 159.600,370.475 159.600 C 370.654 159.600,370.800 158.880,370.800 158.000 C 370.800 157.089,370.992 156.400,371.247 156.400 C 371.495 156.400,371.601 156.048,371.487 155.610 C 371.373 155.175,371.456 154.140,371.670 153.310 C 372.312 150.826,372.805 148.305,373.005 146.479 C 373.109 145.533,373.351 144.453,373.543 144.079 C 373.735 143.706,373.859 142.860,373.819 142.200 C 373.779 141.540,373.935 140.873,374.167 140.718 C 374.596 140.431,374.636 140.198,375.053 135.500 C 375.185 134.015,375.435 132.800,375.608 132.800 C 375.781 132.800,376.017 131.945,376.133 130.900 C 376.426 128.249,376.795 126.339,377.197 125.400 C 377.385 124.960,377.642 123.880,377.768 123.000 C 377.893 122.120,378.190 120.500,378.427 119.400 C 378.664 118.300,378.952 116.590,379.068 115.600 C 379.183 114.610,379.440 113.629,379.639 113.420 C 379.837 113.211,380.000 112.266,380.000 111.320 C 380.000 110.374,380.158 109.600,380.350 109.600 C 380.543 109.600,380.814 108.655,380.953 107.500 C 381.483 103.072,381.696 102.000,382.042 102.000 C 382.239 102.000,382.400 101.111,382.400 100.024 C 382.400 98.937,382.580 97.936,382.800 97.800 C 383.020 97.664,383.200 96.764,383.200 95.800 C 383.200 94.836,383.380 93.936,383.600 93.800 C 383.820 93.664,384.000 92.753,384.000 91.776 C 384.000 90.799,384.162 90.000,384.360 90.000 C 384.558 90.000,384.811 89.235,384.922 88.300 C 385.385 84.416,385.780 82.470,386.811 79.000 C 387.007 78.340,387.210 77.023,387.263 76.074 C 387.316 75.125,387.504 74.260,387.680 74.151 C 387.856 74.042,388.000 73.243,388.000 72.376 C 388.000 71.509,388.169 70.800,388.375 70.800 C 388.581 70.800,388.740 70.079,388.728 69.198 C 388.716 68.317,388.875 67.372,389.082 67.098 C 389.290 66.824,389.508 65.792,389.567 64.804 C 389.626 63.815,389.843 62.694,390.047 62.312 C 390.252 61.929,390.305 61.163,390.166 60.608 C 390.010 59.985,390.082 59.600,390.357 59.600 C 390.600 59.600,390.779 59.465,390.753 59.300 C 390.727 59.135,390.749 58.865,390.803 58.700 C 390.856 58.535,390.936 58.265,390.979 58.100 C 391.110 57.602,391.625 53.478,391.702 52.300 C 391.742 51.695,391.915 51.200,392.087 51.200 C 392.259 51.200,392.400 50.480,392.400 49.600 C 392.400 48.720,392.546 48.000,392.725 48.000 C 392.904 48.000,393.094 47.145,393.147 46.100 C 393.200 45.055,393.413 44.140,393.621 44.067 C 393.830 43.993,394.000 43.048,394.000 41.967 C 394.000 40.885,394.145 40.000,394.322 40.000 C 394.591 40.000,394.799 38.626,394.911 36.100 C 394.923 35.825,395.083 35.600,395.267 35.600 C 395.450 35.600,395.600 34.700,395.600 33.600 C 395.600 32.500,395.780 31.600,396.000 31.600 C 396.220 31.600,396.400 30.880,396.400 30.000 C 396.400 29.120,396.546 28.400,396.725 28.400 C 396.904 28.400,397.094 27.557,397.148 26.526 C 397.201 25.495,397.359 24.467,397.499 24.240 C 397.800 23.752,398.372 20.915,398.675 18.400 C 398.794 17.410,399.078 16.483,399.305 16.340 C 399.558 16.180,399.734 13.622,399.759 9.740 L 399.800 3.400 398.284 1.800 L 396.769 0.200 392.084 0.143 C 389.508 0.112,386.500 0.219,385.400 0.380 " stroke="none" fill="#3c93d3" fill-rule="evenodd"></path></g></svg>